#!OML:ASF C:\ViconDB\ViconDB\414\Spring2016\042216\male.ASF
:FULLY-SPECIFIED
:DEGREES
898
root 44.939 17.8386 11.1852 898.044 65.1324 1257.73
lowerback -3.09348 -1.36392 5.13286
upperback -0.801951 -1.96094 -0.576939
thorax 0.71559 -0.97299 -3.54103
lowerneck 2.54779 15.3356 1.42187
upperneck -0.41987 20.5314 -4.77137
head 0.129454 10.3136 -1.70695
rclavicle 4.5062e-014 -1.03368e-014
rhumerus -29.6341 -2.91915 -92.8098
rradius 28.0862
rwrist 32.6909
rhand 12.6175 -18.861
rfingers 7.12502
rthumb 37.6045 -44.7668
lclavicle 4.5062e-014 -1.03368e-014
lhumerus -41.1785 23.8368 78.6018
lradius 28.8711
lwrist -26.2947
lhand -7.10966 13.6395
lfingers 7.12502
lthumb 18.7654 42.7543
rfemur -2.70416 17.5793 19.3396
rtibia 22.4585
rfoot -21.8372 -11.679
rtoes -14.0846
lfemur -6.85627 -6.11149 -19.1964
ltibia 23.7784
lfoot -27.2106 -12.8509
ltoes -16.5242
899
root 44.9415 17.8359 11.1932 898.18 64.969 1257.94
lowerback -3.02869 -1.33053 5.19232
upperback -0.784829 -1.91551 -0.543406
thorax 0.70061 -0.950319 -3.53685
lowerneck 2.50003 15.3229 1.40752
upperneck -0.317441 20.5215 -4.84927
head 0.176164 10.3085 -1.71726
rclavicle -8.07563e-015 1.98785e-015
rhumerus -29.731 -2.79304 -92.9023
rradius 27.829
rwrist 32.9557
rhand 12.814 -18.9167
rfingers 7.12502
rthumb 37.7902 -44.7727
lclavicle -8.07563e-015 1.98785e-015
lhumerus -40.8217 23.2172 79.1704
lradius 29.2712
lwrist -25.1516
lhand -6.49162 13.7135
lfingers 7.12502
lthumb 19.3597 42.7697
rfemur -2.5969 17.6549 19.5129
rtibia 22.444
rfoot -21.9041 -11.8832
rtoes -14.0489
lfemur -6.82068 -6.29493 -19.0839
ltibia 23.8002
lfoot -27.2526 -12.755
ltoes -16.8364
900
root 44.9484 17.8366 11.2058 898.007 64.795 1257.69
lowerback -3.10188 -1.2937 4.99807
upperback -0.794483 -1.86395 -0.577686
thorax 0.742019 -0.923792 -3.46358
lowerneck 2.4535 15.3128 1.44164
upperneck -0.20296 20.5161 -4.90177
head 0.228714 10.3048 -1.72596
rclavicle 2.35684e-014 -3.97569e-015
rhumerus -29.7894 -2.78117 -93.0099
rradius 27.5385
rwrist 33.2171
rhand 13.1727 -18.8363
rfingers 7.12502
rthumb 38.1289 -44.6003
lclavicle 2.35684e-014 -3.97569e-015
lhumerus -40.5392 22.9275 79.4663
lradius 29.5372
lwrist -24.6669
lhand -6.13577 13.5038
lfingers 7.12502
lthumb 19.7018 42.5254
rfemur -2.59641 17.8736 19.4752
rtibia 22.4242
rfoot -21.9427 -12.2872
rtoes -14.1557
lfemur -6.91486 -6.66548 -19.1922
ltibia 23.8209
lfoot -27.2822 -12.3699
ltoes -17.6417
901
root 44.954 17.8369 11.2134 897.827 64.6593 1257.5
lowerback -3.12341 -1.23903 4.93071
upperback -0.783174 -1.79029 -0.625529
thorax 0.773431 -0.886165 -3.47371
lowerneck 2.39525 15.2967 1.44968
upperneck -0.0530852 20.5032 -4.9234
head 0.28797 10.2968 -1.71985
rclavicle -3.28119e-014 -1.19271e-014
rhumerus -29.885 -2.68142 -93.1325
rradius 27.3079
rwrist 33.3051
rhand 13.3472 -18.9801
rfingers 7.12502
rthumb 38.2937 -44.6988
lclavicle -3.28119e-014 -1.19271e-014
lhumerus -40.2756 22.711 79.7377
lradius 29.9377
lwrist -23.92
lhand -5.8439 14.0831
lfingers 7.12502
lthumb 19.9824 43.0756
rfemur -2.54392 17.7987 19.4338
rtibia 22.4146
rfoot -21.9368 -12.381
rtoes -14.3491
lfemur -6.90927 -6.88573 -19.2718
ltibia 23.8319
lfoot -27.2183 -12.3518
ltoes -17.3456
902
root 44.958 17.8367 11.2215 897.889 64.519 1257.6
lowerback -3.09764 -1.20537 4.97062
upperback -0.774664 -1.74557 -0.637255
thorax 0.770479 -0.863768 -3.50632
lowerneck 2.35834 15.2806 1.51041
upperneck 0.0814656 20.4925 -4.99838
head 0.35042 10.2905 -1.73834
rclavicle 1.54555e-014 -3.97569e-016
rhumerus -29.9346 -2.72068 -93.2101
rradius 26.9821
rwrist 33.7231
rhand 13.4314 -18.8955
rfingers 7.12502
rthumb 38.3731 -44.5922
lclavicle 1.54555e-014 -3.97569e-016
lhumerus -40.0212 22.3728 80.0809
lradius 30.2978
lwrist -23.4104
lhand -5.62848 14.4161
lfingers 7.12502
lthumb 20.1895 43.3869
rfemur -2.47677 17.8769 19.5532
rtibia 22.4184
rfoot -21.9871 -12.5674
rtoes -14.2164
lfemur -6.91132 -6.98091 -19.2098
ltibia 23.8281
lfoot -27.1322 -12.4868
ltoes -16.992
903
root 44.9625 17.8357 11.2285 898.055 64.4035 1257.78
lowerback -3.11297 -1.17772 5.03503
upperback -0.775237 -1.71149 -0.627304
thorax 0.780141 -0.846337 -3.5316
lowerneck 2.28607 15.2794 1.56613
upperneck 0.262329 20.5042 -5.07052
head 0.433222 10.2946 -1.74947
rclavicle 1.76918e-014 3.57812e-015
rhumerus -29.9997 -2.76064 -93.2744
rradius 26.7029
rwrist 34.0951
rhand 13.7451 -18.8527
rfingers 7.12502
rthumb 38.6691 -44.4667
lclavicle 1.76918e-014 3.57812e-015
lhumerus -39.6958 21.6892 80.6255
lradius 30.5661
lwrist -22.1949
lhand -5.81968 14.4922
lfingers 7.12502
lthumb 20.0057 43.4823
rfemur -2.45928 17.8593 19.6922
rtibia 22.4308
rfoot -22.0213 -12.6958
rtoes -14.1658
lfemur -6.92114 -7.00861 -19.0924
ltibia 23.8107
lfoot -27.2059 -12.5405
ltoes -17.3682
904
root 44.9666 17.8348 11.2358 898.004 64.296 1257.74
lowerback -3.09577 -1.16389 4.97503
upperback -0.785833 -1.68991 -0.630198
thorax 0.763414 -0.836249 -3.49956
lowerneck 2.18148 15.2778 1.52603
upperneck 0.466143 20.5126 -5.06192
head 0.509539 10.2958 -1.72161
rclavicle -2.01145e-014 -7.95139e-015
rhumerus -30.0668 -2.8915 -93.2813
rradius 26.4115
rwrist 34.581
rhand 13.8986 -18.7818
rfingers 7.12502
rthumb 38.8139 -44.3548
lclavicle -2.01145e-014 -7.95139e-015
lhumerus -39.4054 21.0386 81.077
lradius 30.9145
lwrist -21.4
lhand -5.40828 14.6076
lfingers 7.12502
lthumb 20.4011 43.5559
rfemur -2.43832 17.8446 19.7127
rtibia 22.4484
rfoot -22.0435 -12.7822
rtoes -14.0683
lfemur -6.91237 -7.06415 -19.085
ltibia 23.787
lfoot -27.221 -12.5726
ltoes -17.4807
905
root 44.9716 17.836 11.2439 897.813 64.1957 1257.52
lowerback -3.09853 -1.14242 4.83992
upperback -0.794702 -1.65681 -0.658647
thorax 0.762149 -0.820085 -3.4519
lowerneck 2.13037 15.2776 1.58613
upperneck 0.644123 20.5262 -5.12506
head 0.587813 10.3009 -1.733
rclavicle 1.46604e-014 -7.15625e-015
rhumerus -30.103 -2.98542 -93.3011
rradius 26.1193
rwrist 35.0083
rhand 13.8568 -18.8498
rfingers 7.12502
rthumb 38.7745 -44.4341
lclavicle 1.46604e-014 -7.15625e-015
lhumerus -39.1393 20.4456 81.6327
lradius 31.2302
lwrist -20.1208
lhand -6.82068 14.1904
lfingers 7.12502
lthumb 19.0433 43.2782
rfemur -2.43944 17.8432 19.6555
rtibia 22.485
rfoot -22.0338 -12.9063
rtoes -14.1777
lfemur -6.92681 -6.96552 -19.1571
ltibia 23.7466
lfoot -27.5515 -12.423
ltoes -18.918
906
root 44.9768 17.8361 11.2522 897.691 64.0908 1257.39
lowerback -3.11717 -1.10821 4.77978
upperback -0.792269 -1.61005 -0.704959
thorax 0.779917 -0.796369 -3.46497
lowerneck 2.01939 15.2527 1.54132
upperneck 0.821357 20.5015 -5.09629
head 0.652902 10.2853 -1.70053
rclavicle -3.96327e-015 1.39149e-014
rhumerus -30.1496 -3.19073 -93.31
rradius 25.8536
rwrist 35.5316
rhand 14.015 -18.6885
rfingers 7.12502
rthumb 38.9236 -44.2303
lclavicle -3.96327e-015 1.39149e-014
lhumerus -39.0133 20.6157 81.6246
lradius 31.4273
lwrist -20.5667
lhand -6.75214 13.3925
lfingers 7.12502
lthumb 19.1092 42.4738
rfemur -2.41997 17.8752 19.6532
rtibia 22.5039
rfoot -22.0126 -13.135
rtoes -14.1505
lfemur -6.9162 -6.97968 -19.1823
ltibia 23.7148
lfoot -27.51 -12.5974
ltoes -18.5471
907
root 44.9819 17.8359 11.2612 897.737 63.987 1257.49
lowerback -3.09 -1.09551 4.7665
upperback -0.77916 -1.59194 -0.694213
thorax 0.780622 -0.787132 -3.44534
lowerneck 1.96546 15.2569 1.55845
upperneck 0.957988 20.5179 -5.14488
head 0.71278 10.2919 -1.70433
rclavicle 1.78906e-014 1.47101e-014
rhumerus -30.1938 -3.36258 -93.2901
rradius 25.6871
rwrist 35.8108
rhand 14.3171 -18.7126
rfingers 7.12502
rthumb 39.2085 -44.1726
lclavicle 1.78906e-014 1.47101e-014
lhumerus -38.8744 20.7878 81.6888
lradius 31.6626
lwrist -20.7651
lhand -6.56631 13.2684
lfingers 7.12502
lthumb 19.2879 42.3319
rfemur -2.34267 17.8588 19.7775
rtibia 22.5012
rfoot -22.0228 -13.3212
rtoes -13.8877
lfemur -6.87762 -6.98773 -19.0991
ltibia 23.6996
lfoot -27.3091 -12.9803
ltoes -17.3916
908
root 44.9842 17.8342 11.2662 898.031 63.9228 1257.87
lowerback -3.02458 -1.08843 4.95003
upperback -0.776057 -1.58505 -0.67206
thorax 0.743304 -0.784425 -3.5239
lowerneck 1.82017 15.2824 1.54032
upperneck 1.17312 20.5637 -5.12364
head 0.801734 10.3105 -1.67109
rclavicle -9.61621e-015 5.56597e-015
rhumerus -30.2433 -3.54124 -93.281
rradius 25.508
rwrist 36.1322
rhand 14.5086 -18.6875
rfingers 7.12502
rthumb 39.3889 -44.095
lclavicle -9.61621e-015 5.56597e-015
lhumerus -38.6792 20.019 82.1705
lradius 32.1309
lwrist -20.0079
lhand -6.3551 13.4614
lfingers 7.12502
lthumb 19.491 42.5045
rfemur -2.26333 17.7924 20.017
rtibia 22.4736
rfoot -21.9543 -13.4054
rtoes -13.8932
lfemur -6.84127 -6.83851 -18.8737
ltibia 23.7045
lfoot -27.2758 -13.3874
ltoes -16.633
909
root 44.9874 17.8343 11.2734 898.269 63.8218 1258.12
lowerback -3.02908 -1.0845 5.03765
upperback -0.800119 -1.58181 -0.65446
thorax 0.719377 -0.783634 -3.55464
lowerneck 1.86247 15.2855 1.65837
upperneck 1.23823 20.581 -5.26959
head 0.845507 10.3202 -1.72767
rclavicle 5.23798e-014 -3.97569e-015
rhumerus -30.316 -3.64628 -93.2815
rradius 25.3506
rwrist 36.2959
rhand 14.6239 -18.7292
rfingers 7.12502
rthumb 39.4975 -44.1048
lclavicle 5.23798e-014 -3.97569e-015
lhumerus -38.4438 19.5465 82.5055
lradius 32.2229
lwrist -19.5776
lhand -6.14383 12.5208
lfingers 7.12502
lthumb 19.6941 41.5432
rfemur -2.24852 17.779 20.1763
rtibia 22.4311
rfoot -21.994 -13.4628
rtoes -13.6729
lfemur -6.89972 -6.67818 -18.6904
ltibia 23.7242
lfoot -27.3911 -13.6662
ltoes -16.7589
910
root 44.9914 17.8358 11.2824 898.222 63.7426 1258.05
lowerback -3.02958 -1.077 4.98628
upperback -0.820165 -1.5694 -0.686697
thorax 0.700734 -0.778349 -3.5584
lowerneck 1.73619 15.2887 1.60456
upperneck 1.42244 20.5934 -5.20866
head 0.912243 10.3224 -1.68265
rclavicle -3.37934e-014 -4.77083e-015
rhumerus -30.3725 -3.90468 -93.2628
rradius 25.1985
rwrist 36.5039
rhand 14.5702 -18.681
rfingers 7.12502
rthumb 39.4469 -44.0715
lclavicle -3.37934e-014 -4.77083e-015
lhumerus -38.2906 19.4821 82.6411
lradius 32.3581
lwrist -19.4882
lhand -6.00854 12.7897
lfingers 7.12502
lthumb 19.8241 41.7987
rfemur -2.23375 17.8729 20.1999
rtibia 22.3992
rfoot -22.0004 -13.6012
rtoes -13.7167
lfemur -6.94944 -6.47758 -18.6624
ltibia 23.7354
lfoot -27.6016 -13.8607
ltoes -17.3231
911
root 44.9948 17.8362 11.2911 898.26 63.6476 1258.08
lowerback -3.02898 -1.06886 4.99168
upperback -0.83079 -1.55815 -0.707687
thorax 0.689807 -0.77322 -3.58263
lowerneck 1.69335 15.285 1.64394
upperneck 1.49721 20.5986 -5.29866
head 0.957871 10.3241 -1.70563
rclavicle -1.0138e-014 -1.39149e-014
rhumerus -30.4083 -4.15836 -93.2408
rradius 25.0915
rwrist 36.6074
rhand 14.6018 -18.7558
rfingers 7.12502
rthumb 39.4767 -44.1376
lclavicle -1.0138e-014 -1.39149e-014
lhumerus -38.1618 19.5663 82.6885
lradius 32.4068
lwrist -19.5261
lhand -6.40172 12.5273
lfingers 7.12502
lthumb 19.4461 41.5749
rfemur -2.21881 17.8774 20.2622
rtibia 22.3791
rfoot -21.9366 -13.7133
rtoes -14.1438
lfemur -6.99708 -6.25401 -18.5914
ltibia 23.7373
lfoot -27.821 -14.084
ltoes -17.8483
912
root 44.9983 17.8361 11.2984 898.265 63.5855 1258.12
lowerback -3.00507 -1.06252 4.99493
upperback -0.826999 -1.54857 -0.734603
thorax 0.680416 -0.768727 -3.61148
lowerneck 1.67692 15.2868 1.72714
upperneck 1.54559 20.611 -5.41108
head 0.998449 10.3301 -1.74415
rclavicle -5.81694e-014 2.78299e-015
rhumerus -30.4534 -4.39844 -93.2353
rradius 25.0329
rwrist 36.6666
rhand 14.692 -18.7301
rfingers 7.12502
rthumb 39.5616 -44.0869
lclavicle -5.81694e-014 2.78299e-015
lhumerus -37.9882 19.113 83.019
lradius 32.5376
lwrist -19.1865
lhand -6.77413 12.8869
lfingers 7.12502
lthumb 19.088 41.9702
rfemur -2.18558 17.8358 20.3261
rtibia 22.3842
rfoot -22.0173 -13.7446
rtoes -14.0602
lfemur -6.98192 -6.09241 -18.5232
ltibia 23.7171
lfoot -27.9329 -14.3269
ltoes -17.9787
